<svg width="12" height="10" viewBox="0 0 12 10" fill="none" xmlns="http://www.w3.org/2000/svg">
<path d="M0.458233 4.16118L5.70823 7.19451C5.79691 7.24571 5.8975 7.27267 5.9999 7.27267C6.1023 7.27267 6.20289 7.24571 6.29157 7.19451L11.5416 4.16118C11.63 4.1099 11.7033 4.0363 11.7543 3.94775C11.8054 3.85919 11.8322 3.75879 11.8322 3.6566C11.8322 3.5544 11.8054 3.454 11.7543 3.36545C11.7033 3.27689 11.63 3.20329 11.5416 3.15201L6.29157 0.118679C6.20289 0.0674811 6.1023 0.0405273 5.9999 0.0405273C5.8975 0.0405273 5.79691 0.0674811 5.70823 0.118679L0.458233 3.15201C0.369835 3.20329 0.296459 3.27689 0.245453 3.36545C0.194447 3.454 0.1676 3.5544 0.1676 3.6566C0.1676 3.75879 0.194447 3.85919 0.245453 3.94775C0.296459 4.0363 0.369835 4.1099 0.458233 4.16118ZM5.9999 1.29701L10.0832 3.63035L5.9999 5.99285L1.91657 3.65368L5.9999 1.29701ZM10.9582 5.84118L5.9999 8.70535L1.04157 5.84118C0.975336 5.80237 0.902097 5.77701 0.826047 5.76656C0.749998 5.75611 0.672634 5.76078 0.59839 5.78029C0.524147 5.7998 0.454484 5.83377 0.393396 5.88025C0.332307 5.92674 0.280995 5.98482 0.242399 6.05118C0.20383 6.11776 0.178813 6.19131 0.168789 6.2676C0.158766 6.34388 0.163934 6.4214 0.183995 6.49568C0.204057 6.56996 0.238615 6.63954 0.285681 6.70041C0.332747 6.76128 0.39139 6.81224 0.458233 6.85035L5.70823 9.88368C5.79691 9.93488 5.8975 9.96183 5.9999 9.96183C6.1023 9.96183 6.20289 9.93488 6.29157 9.88368L11.5416 6.85035C11.6084 6.81224 11.6671 6.76128 11.7141 6.70041C11.7612 6.63954 11.7957 6.56996 11.8158 6.49568C11.8359 6.4214 11.841 6.34388 11.831 6.2676C11.821 6.19131 11.796 6.11776 11.7574 6.05118C11.7188 5.98482 11.6675 5.92674 11.6064 5.88025C11.5453 5.83377 11.4757 5.7998 11.4014 5.78029C11.3272 5.76078 11.2498 5.75611 11.1738 5.76656C11.0977 5.77701 11.0245 5.80237 10.9582 5.84118Z" fill="#898989"/>
</svg>
