<svg width="8" height="10" viewBox="0 0 8 10" fill="none" xmlns="http://www.w3.org/2000/svg">
<path d="M4 5.5C3.84777 5.49822 3.69866 5.54312 3.57272 5.62865C3.44678 5.71418 3.35007 5.83624 3.29561 5.9784C3.24114 6.12056 3.23153 6.27599 3.26807 6.42378C3.30462 6.57157 3.38556 6.70461 3.5 6.805V7.5C3.5 7.63261 3.55268 7.75979 3.64645 7.85355C3.74021 7.94732 3.86739 8 4 8C4.13261 8 4.25979 7.94732 4.35355 7.85355C4.44732 7.75979 4.5 7.63261 4.5 7.5V6.805C4.61444 6.70461 4.69538 6.57157 4.73193 6.42378C4.76847 6.27599 4.75886 6.12056 4.70439 5.9784C4.64993 5.83624 4.55322 5.71418 4.42728 5.62865C4.30134 5.54312 4.15223 5.49822 4 5.5ZM6.5 3.5V2.5C6.5 1.83696 6.23661 1.20107 5.76777 0.732233C5.29893 0.263392 4.66304 0 4 0C3.33696 0 2.70107 0.263392 2.23223 0.732233C1.76339 1.20107 1.5 1.83696 1.5 2.5V3.5C1.10218 3.5 0.720644 3.65804 0.43934 3.93934C0.158035 4.22064 0 4.60218 0 5V8.5C0 8.89782 0.158035 9.27936 0.43934 9.56066C0.720644 9.84196 1.10218 10 1.5 10H6.5C6.89782 10 7.27936 9.84196 7.56066 9.56066C7.84196 9.27936 8 8.89782 8 8.5V5C8 4.60218 7.84196 4.22064 7.56066 3.93934C7.27936 3.65804 6.89782 3.5 6.5 3.5ZM2.5 2.5C2.5 2.10218 2.65804 1.72064 2.93934 1.43934C3.22064 1.15804 3.60218 1 4 1C4.39782 1 4.77936 1.15804 5.06066 1.43934C5.34196 1.72064 5.5 2.10218 5.5 2.5V3.5H2.5V2.5ZM7 8.5C7 8.63261 6.94732 8.75979 6.85355 8.85355C6.75979 8.94732 6.63261 9 6.5 9H1.5C1.36739 9 1.24021 8.94732 1.14645 8.85355C1.05268 8.75979 1 8.63261 1 8.5V5C1 4.86739 1.05268 4.74021 1.14645 4.64645C1.24021 4.55268 1.36739 4.5 1.5 4.5H6.5C6.63261 4.5 6.75979 4.55268 6.85355 4.64645C6.94732 4.74021 7 4.86739 7 5V8.5Z" fill="#898989"/>
</svg>
