<svg width="12" height="9" viewBox="0 0 12 9" fill="none" xmlns="http://www.w3.org/2000/svg">
<path d="M11.2778 3.99862C10.2358 1.53107 8.27549 4.14209e-05 6.16044 4.14209e-05C4.0454 4.14209e-05 2.08512 1.53107 1.04307 3.99862C1.01466 4.065 1 4.13664 1 4.20907C1 4.28149 1.01466 4.35314 1.04307 4.41952C2.08512 6.88706 4.0454 8.41809 6.16044 8.41809C8.27549 8.41809 10.2358 6.88706 11.2778 4.41952C11.3062 4.35314 11.3209 4.28149 11.3209 4.20907C11.3209 4.13664 11.3062 4.065 11.2778 3.99862ZM6.16044 7.36584C4.51999 7.36584 2.97756 6.161 2.08512 4.20907C2.97756 2.25713 4.51999 1.0523 6.16044 1.0523C7.80089 1.0523 9.34333 2.25713 10.2358 4.20907C9.34333 6.161 7.80089 7.36584 6.16044 7.36584ZM6.16044 2.10455C5.75233 2.10455 5.35338 2.22798 5.01405 2.45923C4.67471 2.69048 4.41024 3.01916 4.25406 3.4037C4.09788 3.78825 4.05702 4.2114 4.13663 4.61964C4.21625 5.02787 4.41278 5.40286 4.70136 5.69718C4.98994 5.9915 5.35761 6.19194 5.75788 6.27314C6.15815 6.35435 6.57305 6.31267 6.95009 6.15338C7.32714 5.9941 7.64941 5.72436 7.87614 5.37827C8.10288 5.03219 8.2239 4.6253 8.2239 4.20907C8.2239 3.65092 8.0065 3.11562 7.61953 2.72095C7.23255 2.32628 6.70771 2.10455 6.16044 2.10455ZM6.16044 5.26132C5.95639 5.26132 5.75691 5.19961 5.58725 5.08399C5.41758 4.96836 5.28534 4.80402 5.20725 4.61175C5.12916 4.41947 5.10873 4.2079 5.14854 4.00378C5.18835 3.79966 5.28661 3.61217 5.4309 3.46501C5.57519 3.31785 5.75903 3.21763 5.95916 3.17703C6.1593 3.13643 6.36674 3.15727 6.55527 3.23691C6.74379 3.31655 6.90493 3.45142 7.01829 3.62446C7.13166 3.79751 7.19217 4.00095 7.19217 4.20907C7.19217 4.48814 7.08347 4.75579 6.88999 4.95312C6.6965 5.15046 6.43407 5.26132 6.16044 5.26132Z" fill="#898989"/>
<path d="M0.218751 1.43076C0.339563 1.19286 0.632004 1.09462 0.871937 1.21135L11.7183 6.48792C11.9582 6.60465 12.0548 6.89212 11.934 7.13002V7.13002C11.8132 7.36792 11.5207 7.46616 11.2808 7.34943L0.434437 2.07286C0.194504 1.95614 0.0979384 1.66866 0.218751 1.43076V1.43076Z" fill="#898989"/>
</svg>
