<svg width="16" height="16" viewBox="0 0 16 16" fill="none" xmlns="http://www.w3.org/2000/svg">
<path d="M12.9583 6.8C11.9486 4.455 10.0493 3 8 3C5.95071 3 4.05138 4.455 3.04173 6.8C3.01421 6.86308 3 6.93117 3 7C3 7.06883 3.01421 7.13692 3.04173 7.2C4.05138 9.545 5.95071 11 8 11C10.0493 11 11.9486 9.545 12.9583 7.2C12.9858 7.13692 13 7.06883 13 7C13 6.93117 12.9858 6.86308 12.9583 6.8ZM8 10C6.41055 10 4.91607 8.855 4.05138 7C4.91607 5.145 6.41055 4 8 4C9.58945 4 11.0839 5.145 11.9486 7C11.0839 8.855 9.58945 10 8 10ZM8 5C7.60458 5 7.21803 5.1173 6.88925 5.33706C6.56046 5.55682 6.30421 5.86918 6.15288 6.23463C6.00156 6.60009 5.96197 7.00222 6.03911 7.39018C6.11626 7.77814 6.30667 8.13451 6.58628 8.41421C6.86589 8.69392 7.22213 8.8844 7.60996 8.96157C7.99778 9.03874 8.39978 8.99913 8.7651 8.84776C9.13043 8.69638 9.44267 8.44004 9.66236 8.11114C9.88205 7.78224 9.9993 7.39556 9.9993 7C9.9993 6.46957 9.78866 5.96086 9.41372 5.58579C9.03878 5.21071 8.53025 5 8 5ZM8 8C7.80229 8 7.60902 7.94135 7.44462 7.83147C7.28023 7.72159 7.1521 7.56541 7.07644 7.38268C7.00078 7.19996 6.98098 6.99889 7.01956 6.80491C7.05813 6.61093 7.15334 6.43275 7.29314 6.29289C7.43294 6.15304 7.61106 6.0578 7.80498 6.01921C7.99889 5.98063 8.19989 6.00043 8.38255 6.07612C8.56521 6.15181 8.72134 6.27998 8.83118 6.44443C8.94102 6.60888 8.99965 6.80222 8.99965 7C8.99965 7.26522 8.89433 7.51957 8.70686 7.70711C8.51939 7.89464 8.26512 8 8 8Z" fill="#171717"/>
<rect x="4" y="12" width="8" height="1" rx="0.5" fill="#171717"/>
</svg>
