<svg width="12" height="10" viewBox="0 0 12 10" fill="none" xmlns="http://www.w3.org/2000/svg">
<path d="M11.2062 4.78125C10.1461 2.21641 8.15175 0.625 6 0.625C3.84825 0.625 1.85394 2.21641 0.793814 4.78125C0.764916 4.85025 0.75 4.92472 0.75 5C0.75 5.07528 0.764916 5.14975 0.793814 5.21875C1.85394 7.78359 3.84825 9.375 6 9.375C8.15175 9.375 10.1461 7.78359 11.2062 5.21875C11.2351 5.14975 11.25 5.07528 11.25 5C11.25 4.92472 11.2351 4.85025 11.2062 4.78125ZM6 8.28125C4.33108 8.28125 2.76188 7.02891 1.85394 5C2.76188 2.97109 4.33108 1.71875 6 1.71875C7.66892 1.71875 9.23812 2.97109 10.1461 5C9.23812 7.02891 7.66892 8.28125 6 8.28125ZM6 2.8125C5.5848 2.8125 5.17893 2.94079 4.83371 3.18116C4.48849 3.42153 4.21942 3.76317 4.06053 4.16288C3.90164 4.56259 3.86007 5.00243 3.94107 5.42676C4.02207 5.85109 4.222 6.24087 4.51559 6.5468C4.80918 6.85272 5.18323 7.06106 5.59045 7.14547C5.99767 7.22987 6.41976 7.18655 6.80336 7.02099C7.18695 6.85542 7.51481 6.57504 7.74548 6.21531C7.97615 5.85558 8.09927 5.43265 8.09927 5C8.09927 4.41984 7.8781 3.86344 7.48441 3.4532C7.09072 3.04297 6.55676 2.8125 6 2.8125ZM6 6.09375C5.7924 6.09375 5.58947 6.0296 5.41685 5.90942C5.24424 5.78924 5.10971 5.61842 5.03026 5.41856C4.95082 5.2187 4.93003 4.99879 4.97053 4.78662C5.01103 4.57445 5.111 4.37957 5.2578 4.2266C5.40459 4.07364 5.59162 3.96947 5.79523 3.92727C5.99884 3.88506 6.20988 3.90672 6.40168 3.98951C6.59347 4.07229 6.7574 4.21248 6.87274 4.39235C6.98807 4.57221 7.04963 4.78368 7.04963 5C7.04963 5.29008 6.93905 5.56828 6.7422 5.7734C6.54536 5.97852 6.27838 6.09375 6 6.09375Z" fill="#898989"/>
</svg>
