<svg width="8" height="8" viewBox="0 0 8 8" fill="none" xmlns="http://www.w3.org/2000/svg">
<path d="M3.17276 6.25998L2.45928 6.95262C2.27219 7.13952 2.01844 7.24452 1.75385 7.24452C1.48927 7.24452 1.23552 7.13952 1.04843 6.95262C0.861341 6.76572 0.756236 6.51222 0.756236 6.2479C0.756236 5.98358 0.861341 5.73009 1.04843 5.54319L2.8785 3.71092C3.05812 3.53089 3.30015 3.42673 3.5545 3.41999C3.80885 3.41324 4.05607 3.50443 4.245 3.67468L4.29337 3.71495C4.36981 3.78971 4.47285 3.83107 4.57982 3.82994C4.68679 3.82881 4.78892 3.78527 4.86376 3.70891C4.93859 3.63255 4.98 3.52961 4.97887 3.42275C4.97773 3.31589 4.93415 3.21386 4.85771 3.13909C4.83496 3.10971 4.81074 3.08148 4.78515 3.05453C4.44105 2.75545 3.99602 2.59821 3.54021 2.61466C3.0844 2.63111 2.65189 2.82002 2.33028 3.14312L0.476031 4.97538C0.160952 5.318 -0.00945236 5.76896 0.000405008 6.23411C0.0102624 6.69926 0.199619 7.14262 0.528931 7.4716C0.858242 7.80058 1.30205 7.98975 1.76766 7.9996C2.23327 8.00944 2.68469 7.83921 3.02764 7.52445L3.725 6.84389C3.79386 6.76885 3.83171 6.67054 3.83094 6.56874C3.83017 6.46695 3.79084 6.36922 3.72086 6.29522C3.65087 6.22123 3.55544 6.17646 3.45375 6.16992C3.35206 6.16338 3.25166 6.19556 3.17276 6.25998ZM7.48188 0.525603C7.14279 0.188952 6.68414 0 6.20608 0C5.72801 0 5.26936 0.188952 4.93027 0.525603L4.23291 1.20616C4.16405 1.2812 4.1262 1.37951 4.12697 1.48131C4.12774 1.5831 4.16707 1.68083 4.23706 1.75482C4.30704 1.82882 4.40248 1.87359 4.50417 1.88013C4.60586 1.88667 4.70625 1.85449 4.78515 1.79007L5.48251 1.09743C5.6696 0.910527 5.92335 0.805527 6.18794 0.805527C6.45252 0.805527 6.70627 0.910527 6.89336 1.09743C7.08045 1.28433 7.18555 1.53783 7.18555 1.80215C7.18555 2.06647 7.08045 2.31996 6.89336 2.50686L5.06329 4.33913C4.88367 4.51916 4.64164 4.62332 4.38729 4.63006C4.13294 4.63681 3.88572 4.54562 3.69679 4.37537L3.64842 4.3351C3.57198 4.26034 3.46894 4.21897 3.36197 4.22011C3.255 4.22124 3.15287 4.26478 3.07803 4.34114C3.0032 4.4175 2.96179 4.52044 2.96292 4.6273C2.96406 4.73416 3.00764 4.83619 3.08408 4.91095C3.11336 4.94087 3.14431 4.9691 3.17679 4.99552C3.52131 5.29369 3.96615 5.45034 4.42168 5.4339C4.87721 5.41746 5.30958 5.22916 5.63166 4.90693L7.46576 3.07466C7.8049 2.73804 7.99694 2.28104 7.99996 1.80345C8.00299 1.32587 7.81674 0.86648 7.48188 0.525603Z" fill="#898989"/>
</svg>
