<svg width="14" height="16" viewBox="0 0 14 16" fill="none" xmlns="http://www.w3.org/2000/svg">
<path d="M6.99984 16C8.10359 16 8.9989 15.1047 8.9989 14H5.00078C5.00078 15.1047 5.89609 16 6.99984 16ZM13.7308 11.3216C13.127 10.6728 11.9973 9.69687 11.9973 6.5C11.9973 4.07188 10.2948 2.12812 7.99921 1.65125V1C7.99921 0.447812 7.55171 0 6.99984 0C6.44796 0 6.00046 0.447812 6.00046 1V1.65125C3.70484 2.12812 2.00234 4.07188 2.00234 6.5C2.00234 9.69687 0.872651 10.6728 0.268901 11.3216C0.081401 11.5231 -0.001724 11.7641 -0.0001615 12C0.003276 12.5125 0.405463 13 1.00296 13H12.9967C13.5942 13 13.9967 12.5125 13.9998 12C14.0014 11.7641 13.9183 11.5228 13.7308 11.3216Z" fill="#898989"/>
</svg>
