<svg width="16" height="16" viewBox="0 0 16 16" fill="none" xmlns="http://www.w3.org/2000/svg">
<path d="M15.0736 4.70008L11.3336 0.926743C11.2713 0.864955 11.1974 0.816072 11.1162 0.782895C11.035 0.749719 10.948 0.732902 10.8603 0.73341C10.6854 0.734146 10.5178 0.80358 10.3936 0.926743L0.926936 10.3601C0.802769 10.485 0.733074 10.654 0.733074 10.8301C0.733074 11.0062 0.802769 11.1752 0.926936 11.3001L4.70027 15.0734C4.76256 15.1352 4.83644 15.1841 4.91766 15.2173C4.99889 15.2504 5.08586 15.2673 5.1736 15.2667C5.3485 15.266 5.5161 15.1966 5.64027 15.0734L7.52694 13.1867L13.1869 7.52674L15.0736 5.64008C15.1978 5.51517 15.2675 5.3462 15.2675 5.17008C15.2675 4.99395 15.1978 4.82499 15.0736 4.70008ZM12.7136 6.11341L12.2403 5.64008C12.1154 5.51591 11.9464 5.44621 11.7703 5.44621C11.5941 5.44621 11.4252 5.51591 11.3003 5.64008C11.2378 5.70205 11.1882 5.77579 11.1543 5.85703C11.1205 5.93826 11.1031 6.0254 11.1031 6.11341C11.1031 6.20142 11.1205 6.28855 11.1543 6.36979C11.1882 6.45103 11.2378 6.52477 11.3003 6.58674L11.7736 7.06008L10.8269 8.00008L9.4136 6.58674C9.28607 6.47753 9.12202 6.42045 8.95423 6.42694C8.78645 6.43342 8.62729 6.50297 8.50856 6.6217C8.38983 6.74043 8.32028 6.89959 8.31379 7.06737C8.30731 7.23516 8.36439 7.39921 8.4736 7.52674L9.88694 8.94008L8.94027 9.88674L8.4736 9.41341C8.34807 9.28787 8.1778 9.21735 8.00027 9.21735C7.82273 9.21735 7.65247 9.28787 7.52694 9.41341C7.4014 9.53895 7.33087 9.70921 7.33087 9.88674C7.33087 10.0643 7.4014 10.2345 7.52694 10.3601L8.00027 10.8267L7.06027 11.7734L5.64027 10.3601C5.51536 10.2359 5.34639 10.1662 5.17027 10.1662C4.99415 10.1662 4.82518 10.2359 4.70027 10.3601C4.5761 10.485 4.50641 10.654 4.50641 10.8301C4.50641 11.0062 4.5761 11.1752 4.70027 11.3001L6.1136 12.7134L5.1736 13.6601L2.34027 10.8267L10.8269 2.34008L13.6603 5.17341L12.7136 6.11341Z" fill="#171717"/>
</svg>
