<svg width="14" height="14" viewBox="0 0 14 14" fill="none" xmlns="http://www.w3.org/2000/svg">
<path d="M13.0458 10.2204L11.6658 8.80712C11.369 8.52495 10.9946 8.33799 10.5906 8.27028C10.1867 8.20256 9.77179 8.25718 9.39916 8.42712L8.79916 7.82712C9.50619 6.88239 9.82909 5.7049 9.70285 4.53167C9.57661 3.35845 9.01061 2.2766 8.11878 1.50392C7.22695 0.731233 6.07551 0.325087 4.89627 0.367239C3.71702 0.409391 2.59752 0.896709 1.76314 1.7311C0.928753 2.56548 0.441434 3.68498 0.399282 4.86423C0.357131 6.04347 0.763276 7.19491 1.53596 8.08674C2.30864 8.97857 3.39049 9.54457 4.56372 9.67081C5.73694 9.79705 6.91444 9.47415 7.85916 8.76712L8.45249 9.36045C8.26255 9.73354 8.19448 10.1568 8.25787 10.5707C8.32126 10.9845 8.51292 11.368 8.80582 11.6671L10.2192 13.0805C10.5942 13.455 11.1025 13.6654 11.6325 13.6654C12.1625 13.6654 12.6708 13.455 13.0458 13.0805C13.2363 12.8942 13.3877 12.6717 13.491 12.4262C13.5943 12.1806 13.6476 11.9169 13.6476 11.6504C13.6476 11.384 13.5943 11.1203 13.491 10.8747C13.3877 10.6292 13.2363 10.4067 13.0458 10.2204ZM7.39249 7.39378C6.92598 7.85912 6.33203 8.17575 5.68565 8.30368C5.03928 8.43162 4.36949 8.36511 3.76089 8.11257C3.1523 7.86003 2.6322 7.43279 2.2663 6.88481C1.9004 6.33683 1.70512 5.6927 1.70512 5.03378C1.70512 4.37487 1.9004 3.73074 2.2663 3.18276C2.6322 2.63478 3.1523 2.20753 3.76089 1.95499C4.36949 1.70245 5.03928 1.63595 5.68565 1.76388C6.33203 1.89182 6.92598 2.20845 7.39249 2.67378C7.70291 2.98342 7.9492 3.35126 8.11724 3.75623C8.28529 4.16119 8.37178 4.59533 8.37178 5.03378C8.37178 5.47223 8.28529 5.90637 8.11724 6.31134C7.9492 6.71631 7.70291 7.08415 7.39249 7.39378ZM12.1058 12.1071C12.0438 12.1696 11.9701 12.2192 11.8889 12.253C11.8076 12.2869 11.7205 12.3043 11.6325 12.3043C11.5445 12.3043 11.4573 12.2869 11.3761 12.253C11.2949 12.2192 11.2211 12.1696 11.1592 12.1071L9.74583 10.6938C9.68334 10.6318 9.63374 10.5581 9.5999 10.4768C9.56605 10.3956 9.54863 10.3085 9.54863 10.2204C9.54863 10.1324 9.56605 10.0453 9.5999 9.96407C9.63374 9.88283 9.68334 9.80909 9.74583 9.74712C9.8078 9.68463 9.88153 9.63503 9.96277 9.60119C10.044 9.56734 10.1312 9.54992 10.2192 9.54992C10.3072 9.54992 10.3943 9.56734 10.4755 9.60119C10.5568 9.63503 10.6305 9.68463 10.6925 9.74712L12.1058 11.1604C12.1683 11.2224 12.2179 11.2962 12.2518 11.3774C12.2856 11.4586 12.303 11.5458 12.303 11.6338C12.303 11.7218 12.2856 11.8089 12.2518 11.8902C12.2179 11.9714 12.1683 12.0451 12.1058 12.1071Z" fill="#898989"/>
</svg>
