<svg width="12" height="14" viewBox="0 0 12 14" fill="none" xmlns="http://www.w3.org/2000/svg">
<path d="M3.33332 9.99998C3.20147 9.99998 3.07258 10.0391 2.96294 10.1123C2.85331 10.1856 2.76786 10.2897 2.7174 10.4115C2.66694 10.5333 2.65374 10.6674 2.67947 10.7967C2.70519 10.926 2.76868 11.0448 2.86192 11.1381C2.95515 11.2313 3.07394 11.2948 3.20326 11.3205C3.33258 11.3462 3.46663 11.333 3.58845 11.2826C3.71026 11.2321 3.81438 11.1467 3.88764 11.037C3.96089 10.9274 3.99999 10.7985 3.99999 10.6666C3.99999 10.4898 3.92975 10.3203 3.80473 10.1952C3.6797 10.0702 3.51013 9.99998 3.33332 9.99998ZM5.99999 0.333313C3.33332 0.333313 0.666656 1.24665 0.666656 2.99998V11C0.666656 12.7533 3.33332 13.6666 5.99999 13.6666C8.66666 13.6666 11.3333 12.7533 11.3333 11V2.99998C11.3333 1.24665 8.66666 0.333313 5.99999 0.333313ZM9.99999 11C9.99999 11.4733 8.47999 12.3333 5.99999 12.3333C3.51999 12.3333 1.99999 11.4733 1.99999 11V8.81998C3.24804 9.41328 4.61858 9.70338 5.99999 9.66665C7.3814 9.70338 8.75194 9.41328 9.99999 8.81998V11ZM9.99999 6.99998C9.99999 7.47331 8.47999 8.33331 5.99999 8.33331C3.51999 8.33331 1.99999 7.47331 1.99999 6.99998V4.81998C3.24804 5.41328 4.61858 5.70338 5.99999 5.66665C7.3814 5.70338 8.75194 5.41328 9.99999 4.81998V6.99998ZM5.99999 4.33331C3.51999 4.33331 1.99999 3.47331 1.99999 2.99998C1.99999 2.52665 3.51999 1.66665 5.99999 1.66665C8.47999 1.66665 9.99999 2.52665 9.99999 2.99998C9.99999 3.47331 8.47999 4.33331 5.99999 4.33331ZM3.33332 5.99998C3.20147 5.99998 3.07258 6.03908 2.96294 6.11233C2.85331 6.18559 2.76786 6.28971 2.7174 6.41152C2.66694 6.53334 2.65374 6.66739 2.67947 6.79671C2.70519 6.92603 2.76868 7.04482 2.86192 7.13805C2.95515 7.23129 3.07394 7.29478 3.20326 7.3205C3.33258 7.34623 3.46663 7.33302 3.58845 7.28257C3.71026 7.23211 3.81438 7.14666 3.88764 7.03703C3.96089 6.92739 3.99999 6.7985 3.99999 6.66665C3.99999 6.48983 3.92975 6.32027 3.80473 6.19524C3.6797 6.07022 3.51013 5.99998 3.33332 5.99998Z" fill="#171717"/>
</svg>
