<svg width="14" height="14" viewBox="0 0 14 14" fill="none" xmlns="http://www.w3.org/2000/svg">
<path d="M13.213 5.36683L11.953 4.94683L12.5463 3.76016C12.6065 3.63596 12.6266 3.49614 12.6039 3.36001C12.5812 3.22389 12.5169 3.09815 12.4197 3.00016L10.9997 1.58016C10.9012 1.48156 10.7742 1.4163 10.6367 1.39358C10.4992 1.37086 10.358 1.39182 10.233 1.4535L9.04634 2.04683L8.62634 0.786832C8.58199 0.655493 8.49779 0.541249 8.38547 0.459997C8.27315 0.378745 8.1383 0.334528 7.99968 0.333498H5.99968C5.85991 0.333138 5.72357 0.376711 5.60992 0.45806C5.49627 0.539408 5.41107 0.654418 5.36634 0.786832L4.94634 2.04683L3.75968 1.4535C3.63547 1.39335 3.49565 1.37323 3.35952 1.39592C3.2234 1.41861 3.09766 1.48299 2.99968 1.58016L1.57968 3.00016C1.48107 3.09867 1.41581 3.22562 1.39309 3.36314C1.37037 3.50066 1.39133 3.64184 1.45301 3.76683L2.04634 4.9535L0.786343 5.3735C0.655005 5.41785 0.54076 5.50205 0.459509 5.61437C0.378257 5.72669 0.33404 5.86154 0.33301 6.00016V8.00016C0.332649 8.13993 0.376223 8.27627 0.457571 8.38992C0.53892 8.50357 0.653929 8.58877 0.786343 8.6335L2.04634 9.0535L1.45301 10.2402C1.39286 10.3644 1.37275 10.5042 1.39543 10.6403C1.41812 10.7764 1.4825 10.9022 1.57968 11.0002L2.99968 12.4202C3.09819 12.5188 3.22513 12.584 3.36265 12.6067C3.50017 12.6295 3.64135 12.6085 3.76634 12.5468L4.95301 11.9535L5.37301 13.2135C5.41773 13.3459 5.50294 13.4609 5.61659 13.5423C5.73024 13.6236 5.86658 13.6672 6.00634 13.6668H8.00634C8.14611 13.6672 8.28245 13.6236 8.3961 13.5423C8.50974 13.4609 8.59495 13.3459 8.63968 13.2135L9.05968 11.9535L10.2463 12.5468C10.3698 12.6055 10.5082 12.6248 10.643 12.6021C10.7777 12.5794 10.9022 12.5159 10.9997 12.4202L12.4197 11.0002C12.5183 10.9017 12.5835 10.7747 12.6063 10.6372C12.629 10.4997 12.608 10.3585 12.5463 10.2335L11.953 9.04683L13.213 8.62683C13.3443 8.58247 13.4586 8.49828 13.5398 8.38596C13.6211 8.27364 13.6653 8.13879 13.6663 8.00016V6.00016C13.6667 5.8604 13.6231 5.72406 13.5418 5.61041C13.4604 5.49676 13.3454 5.41156 13.213 5.36683ZM12.333 7.52016L11.533 7.78683C11.349 7.8465 11.1803 7.94548 11.0384 8.0769C10.8965 8.20832 10.7849 8.36903 10.7113 8.54788C10.6377 8.72674 10.604 8.91946 10.6123 9.11268C10.6207 9.3059 10.6709 9.49499 10.7597 9.66683L11.1397 10.4268L10.4063 11.1602L9.66634 10.7602C9.49538 10.675 9.30811 10.6275 9.11722 10.621C8.92632 10.6145 8.73626 10.6491 8.55989 10.7224C8.38352 10.7958 8.22496 10.9061 8.09496 11.0461C7.96495 11.186 7.86652 11.3522 7.80634 11.5335L7.53968 12.3335H6.47968L6.21301 11.5335C6.15334 11.3495 6.05436 11.1808 5.92294 11.0389C5.79152 10.897 5.63081 10.7854 5.45196 10.7118C5.2731 10.6382 5.08038 10.6045 4.88716 10.6128C4.69394 10.6212 4.50485 10.6714 4.33301 10.7602L3.57301 11.1402L2.83968 10.4068L3.23968 9.66683C3.32841 9.49499 3.37869 9.3059 3.38704 9.11268C3.39539 8.91946 3.36161 8.72674 3.28804 8.54788C3.21446 8.36903 3.10286 8.20832 2.96097 8.0769C2.81908 7.94548 2.65031 7.8465 2.46634 7.78683L1.66634 7.52016V6.48016L2.46634 6.2135C2.65031 6.15383 2.81908 6.05485 2.96097 5.92343C3.10286 5.79201 3.21446 5.6313 3.28804 5.45244C3.36161 5.27359 3.39539 5.08087 3.38704 4.88765C3.37869 4.69443 3.32841 4.50534 3.23968 4.3335L2.85968 3.5935L3.59301 2.86016L4.33301 3.24016C4.50485 3.32889 4.69394 3.37918 4.88716 3.38753C5.08038 3.39588 5.2731 3.3621 5.45196 3.28852C5.63081 3.21495 5.79152 3.10335 5.92294 2.96146C6.05436 2.81957 6.15334 2.65079 6.21301 2.46683L6.47968 1.66683H7.51968L7.78634 2.46683C7.84601 2.65079 7.94499 2.81957 8.07641 2.96146C8.20783 3.10335 8.36854 3.21495 8.5474 3.28852C8.72625 3.3621 8.91897 3.39588 9.11219 3.38753C9.30541 3.37918 9.4945 3.32889 9.66634 3.24016L10.4263 2.86016L11.1597 3.5935L10.7597 4.3335C10.6745 4.50446 10.6271 4.69173 10.6205 4.88262C10.614 5.07352 10.6486 5.26358 10.7219 5.43995C10.7953 5.61632 10.9056 5.77488 11.0456 5.90488C11.1855 6.03489 11.3517 6.13332 11.533 6.1935L12.333 6.46016V7.52016ZM6.99968 4.3335C6.47226 4.3335 5.95669 4.4899 5.51816 4.78291C5.07963 5.07593 4.73783 5.49241 4.536 5.97967C4.33416 6.46694 4.28135 7.00312 4.38425 7.5204C4.48714 8.03769 4.74112 8.51284 5.11406 8.88578C5.487 9.25872 5.96215 9.5127 6.47944 9.61559C6.99672 9.71849 7.5329 9.66568 8.02017 9.46384C8.50743 9.26201 8.92391 8.92022 9.21693 8.48168C9.50994 8.04315 9.66634 7.52758 9.66634 7.00016C9.66634 6.29292 9.38539 5.61464 8.88529 5.11455C8.3852 4.61445 7.70692 4.3335 6.99968 4.3335ZM6.99968 8.3335C6.73597 8.3335 6.47818 8.2553 6.25892 8.10879C6.03965 7.96228 5.86875 7.75404 5.76784 7.51041C5.66692 7.26677 5.64052 6.99869 5.69196 6.74004C5.74341 6.4814 5.8704 6.24383 6.05687 6.05736C6.24334 5.87089 6.48091 5.7439 6.73956 5.69245C6.9982 5.641 7.26629 5.66741 7.50992 5.76832C7.75356 5.86924 7.96179 6.04014 8.1083 6.2594C8.25481 6.47867 8.33301 6.73646 8.33301 7.00016C8.33301 7.35379 8.19253 7.69292 7.94248 7.94297C7.69244 8.19302 7.3533 8.3335 6.99968 8.3335Z" fill="#898989"/>
</svg>
