<svg width="18" height="18" viewBox="0 0 18 18" fill="none" xmlns="http://www.w3.org/2000/svg">
<path d="M5.13822 8.90575H3.75117L5.86462 2.25H7.53267L9.64313 8.90575H8.25608L6.72256 3.77094H6.67473L5.13822 8.90575ZM5.05153 6.2896H8.32783V7.38806H5.05153V6.2896Z" fill="#171717"/>
<path d="M11.6654 9C11.3725 9 11.1114 8.94475 10.8822 8.83426C10.653 8.72159 10.4717 8.55585 10.3381 8.33702C10.2066 8.11603 10.1409 7.84088 10.1409 7.51155C10.1409 7.23423 10.1877 7.00132 10.2813 6.81283C10.375 6.62434 10.5026 6.47268 10.664 6.35785C10.8254 6.24302 11.0088 6.15636 11.214 6.09786C11.4213 6.03936 11.6385 5.99819 11.8657 5.97436C12.1327 5.94403 12.348 5.91586 12.5114 5.88987C12.6748 5.8617 12.7934 5.82053 12.8671 5.76637C12.9409 5.7122 12.9777 5.63204 12.9777 5.52588V5.50638C12.9777 5.30055 12.9179 5.14131 12.7984 5.02865C12.6808 4.91598 12.5134 4.85965 12.2962 4.85965C12.067 4.85965 11.8846 4.9149 11.7491 5.0254C11.6136 5.13373 11.5239 5.27022 11.4801 5.43488L10.3023 5.33089C10.3621 5.02756 10.4796 4.76541 10.655 4.54441C10.8304 4.32126 11.0566 4.1501 11.3336 4.03093C11.6126 3.90961 11.9354 3.84894 12.3021 3.84894C12.5572 3.84894 12.8013 3.88144 13.0345 3.94644C13.2697 4.01143 13.4779 4.11218 13.6593 4.24868C13.8426 4.38517 13.9871 4.56066 14.0927 4.77516C14.1984 4.98748 14.2512 5.24206 14.2512 5.53888V8.90575H13.0435V8.21353H13.0076C12.9339 8.36952 12.8352 8.5071 12.7117 8.62626C12.5881 8.74326 12.4396 8.83534 12.2663 8.9025C12.0929 8.9675 11.8926 9 11.6654 9ZM12.0301 8.04454C12.2174 8.04454 12.3828 8.00445 12.5263 7.92429C12.6698 7.84196 12.7824 7.73146 12.8641 7.5928C12.9458 7.45414 12.9867 7.29706 12.9867 7.12157V6.59184C12.9468 6.62 12.892 6.646 12.8223 6.66984C12.7545 6.6915 12.6778 6.71208 12.5921 6.73158C12.5064 6.74892 12.4207 6.76517 12.335 6.78033C12.2493 6.79333 12.1716 6.80525 12.1018 6.81608C11.9524 6.83991 11.8218 6.87783 11.7102 6.92983C11.5986 6.98182 11.512 7.05224 11.4502 7.14107C11.3884 7.22773 11.3575 7.33606 11.3575 7.46606C11.3575 7.65455 11.4203 7.79863 11.5458 7.89829C11.6734 7.99579 11.8348 8.04454 12.0301 8.04454Z" fill="#171717"/>
<rect x="2.99883" y="10.4994" width="12" height="1.5" rx="0.75" fill="#171717"/>
<rect x="2.99883" y="13.5" width="6" height="1.5" rx="0.75" fill="#171717"/>
</svg>
