<svg width="8" height="10" viewBox="0 0 8 10" fill="none" xmlns="http://www.w3.org/2000/svg">
<path d="M6.5 3.49966H2.5V2.4996C2.49927 2.20268 2.58667 1.91222 2.75113 1.66501C2.91559 1.4178 3.14971 1.22496 3.42384 1.11091C3.69797 0.996862 3.99978 0.966736 4.29105 1.02435C4.58231 1.08196 4.84993 1.22472 5.06 1.43455C5.24797 1.62659 5.38243 1.86448 5.45 2.12458C5.46641 2.18828 5.49521 2.24812 5.53475 2.30068C5.57429 2.35324 5.6238 2.3975 5.68044 2.43094C5.73709 2.46437 5.79976 2.48631 5.86488 2.49552C5.93001 2.50473 5.99631 2.50102 6.06 2.4846C6.12369 2.46819 6.18353 2.43939 6.23609 2.39984C6.28865 2.3603 6.33291 2.3108 6.36633 2.25415C6.39976 2.1975 6.42171 2.13483 6.43092 2.0697C6.44012 2.00457 6.43642 1.93827 6.42 1.87457C6.30609 1.44195 6.08017 1.04699 5.765 0.72951C5.41509 0.380675 4.96967 0.143347 4.48498 0.0474957C4.00029 -0.0483558 3.49807 0.0015668 3.04173 0.19096C2.58539 0.380353 2.1954 0.700723 1.921 1.11162C1.64661 1.52251 1.5001 2.0055 1.5 2.4996V3.49966C1.10218 3.49966 0.720644 3.6577 0.43934 3.93902C0.158035 4.22034 0 4.60189 0 4.99974V8.49992C0 8.89777 0.158035 9.27932 0.43934 9.56064C0.720644 9.84196 1.10218 10 1.5 10H6.5C6.89782 10 7.27936 9.84196 7.56066 9.56064C7.84196 9.27932 8 8.89777 8 8.49992V4.99974C8 4.60189 7.84196 4.22034 7.56066 3.93902C7.27936 3.6577 6.89782 3.49966 6.5 3.49966ZM7 8.49992C7 8.63254 6.94732 8.75972 6.85355 8.85349C6.75979 8.94727 6.63261 8.99995 6.5 8.99995H1.5C1.36739 8.99995 1.24021 8.94727 1.14645 8.85349C1.05268 8.75972 1 8.63254 1 8.49992V4.99974C1 4.86712 1.05268 4.73994 1.14645 4.64616C1.24021 4.55239 1.36739 4.49971 1.5 4.49971H6.5C6.63261 4.49971 6.75979 4.55239 6.85355 4.64616C6.94732 4.73994 7 4.86712 7 4.99974V8.49992Z" fill="#898989"/>
</svg>
