<svg width="10" height="13" viewBox="0 0 10 13" fill="none" xmlns="http://www.w3.org/2000/svg">
<path fill-rule="evenodd" clip-rule="evenodd" d="M5.525 0.456554L9.275 4.21208C9.35 4.28719 9.425 4.3623 9.425 4.43741C9.5 4.51252 9.5 4.66274 9.5 4.73785C9.5 4.81296 9.5 4.96318 9.425 5.03829C9.35 5.1134 9.35 5.18851 9.275 5.26362C9.2 5.33873 9.125 5.41384 9.05 5.41384C8.975 5.48895 8.825 5.48895 8.75 5.48895C8.675 5.48895 8.525 5.48895 8.45 5.41384C8.375 5.33873 8.3 5.33873 8.225 5.26362L5.75 2.78498V8.49337V12.2489C5.75 12.6996 5.45 13 5 13C4.55 13 4.25 12.6996 4.25 12.2489V7.74227V2.78498L1.775 5.26362C1.625 5.41384 1.475 5.48895 1.25 5.48895C1.025 5.48895 0.875 5.41384 0.725 5.26362C0.575 5.1134 0.5 4.96318 0.5 4.73785C0.5 4.66274 0.5 4.51252 0.575 4.43741C0.65 4.3623 0.65 4.28719 0.725 4.21208L4.475 0.456554C4.55 0.381444 4.625 0.306333 4.7 0.306333C4.85 0.231222 5.075 0.231222 5.3 0.306333C5.375 0.306333 5.45 0.381444 5.525 0.456554Z" fill="#171717"/>
</svg>
